<?xml version="1.0" encoding="utf-8"?>
<!-- Generator: Adobe Illustrator 22.0.1, SVG Export Plug-In . SVG Version: 6.00 Build 0)  -->
<svg version="1.1" id="Capa_1" xmlns="http://www.w3.org/2000/svg" xmlns:xlink="http://www.w3.org/1999/xlink" x="0px" y="0px"
	 viewBox="0 0 1200 1200" style="enable-background:new 0 0 1200 1200;" xml:space="preserve">
<style type="text/css">
	.st0{fill:#171717;}
	.st1{fill:#11FFBD;}
</style>
<path class="st0" d="M615.2,35.3c56.1-2.5,110.9-2.2,164.2,15.8c83.4,28.1,122.2,91.2,131.4,174.2c5.1,46.1,3.7,92.9,5.1,139.5
	c0.4,15-0.2,30,0.5,45c3.5,69.1,40.4,105.4,109.4,107.7c15.7,0.5,31.4,0.1,48.8,0.1c0,37.6,0,73.6,0,113.4c-15.1,0-30.5-0.2-45.9,0
	c-76.8,1.4-111.3,35.6-112.6,112c-1.2,72.6,2.5,145.6-4.2,217.7c-12.4,132.8-81.2,195.6-215.4,204.6c-26.6,1.8-53.4,0.3-81.5,0.3
	c0-37.1,0-73,0-111.3c51.5-2.6,107.7,5.3,143.3-45.9c21.8-31.3,24.2-67.3,21.9-102C731.7,896,684,889,638.5,875.1
	c-44.8-13.7-87.4-34.5-132.6-52.9c13.3-30.8,24.4-56.5,36.2-83.8c76,36,152.4,61.3,237.5,60.9c1.4-29.2,0.2-57.7,4.9-85.2
	c4.9-28.3,12.2-57.2,24.5-82.9c16.2-33.7,50.5-45.4,85.9-53.9c-2.2-2.7-3.3-5.6-4.9-6c-71.4-16.3-99.7-67.5-105.4-134.2
	c-3.7-43.2-2.5-86.7-3.5-130.1c-0.1-5.5,0-11.1-0.1-16.6c-1.3-105.8-37.8-142.1-143.1-142.6c-7,0-14,0-22.7,0
	C615.2,110.2,615.2,74.2,615.2,35.3z"/>
<path class="st0" d="M498.8,36.1c0,38.8,0,75.8,0,115.2c-60.3,0-119.9,0-181.4,0c0,301.2,0,599.9,0,901.1c60.1,0,119.6,0,180.6,0
	c0,38.4,0,74.3,0,111.9c-105.3,0-210.7,0-317.5,0c0-375.7,0-751.1,0-1128.2C286.2,36.1,391.4,36.1,498.8,36.1z"/>
<path class="st1" d="M655.4,370.3c0,40.9-34.3,75.3-75.2,75.4c-40.9,0-75.3-34.3-75.4-75.2c0-40.9,34.3-75.3,75.2-75.4
	C621,295.1,655.3,329.4,655.4,370.3z"/>
</svg>
