<?xml version="1.0" encoding="utf-8"?>
<!-- Generator: Adobe Illustrator 22.0.1, SVG Export Plug-In . SVG Version: 6.00 Build 0)  -->
<svg version="1.1" id="Capa_1" xmlns="http://www.w3.org/2000/svg" xmlns:xlink="http://www.w3.org/1999/xlink" x="0px" y="0px"
	 viewBox="0 0 1200 1200" style="enable-background:new 0 0 1200 1200;" xml:space="preserve">
<style type="text/css">
	.st0{fill:#12FDBC;}
	.st1{fill:#3D3D3D;}
</style>
<path class="st0" d="M293.3,1107.6c-17-9.7-32.9-21.1-48.6-32.7c-17.1-12.6-33-26.7-48.7-40.9c-14.5-13.1-27.7-27.5-40.6-42.3
	c-20.3-23.4-39.2-47.9-55.7-74.1c-14.1-22.5-26.9-45.8-38-70.1c-13.2-29.1-24.1-58.9-32.5-89.6c-8.2-29.9-13.8-60.2-17.4-91
	c-3.6-30.1-4.4-60.2-3.2-90.4c2.7-69.5,17.4-136.4,43.7-200.8c22.6-55.2,52.9-105.7,90.5-151.9c6.1-7.4,11.5-15.3,19.6-20.9
	c0.7-0.5,1.4-0.9,2.1-1.4c0,0-0.1,0.1-0.1,0.1c1.9-0.6,3.8-1.1,5.6-1.8c32.4-12.3,67.4,12.5,66.8,47.1c-0.2,11.6-5.1,21.3-11.1,30.6
	c-11.5,12.4-21.6,25.9-31.2,39.8c-20.5,29.3-37.3,60.5-51.1,93.4c-11.5,27.2-19.5,55.5-26.3,84c-3.2,13.3-5.7,27.1-7,41
	c-2.7,28.9-4.9,57.6-3.6,86.7c1.9,42.1,8.4,83.5,21.4,123.5c52.1,160.2,159.3,267.4,316.7,325c39.3,14.4,80.4,21.5,122.2,24.6
	c44.3,3.3,88.3,0.4,131.7-8.6c106.3-22,196.9-72.5,269.7-153.3c84.7-93.9,126.8-204.9,128.6-331.1c0.6-38.8-4.4-77.2-13.3-115.1
	c-40.1-171.2-170.7-309.9-339-360.5c-32.2-9.7-65.1-15.5-98.3-19.5c-1,1-2.2,0.4-3.2,0.5c-1.7-0.4-3.4-0.9-5.2-1.3
	c-1.6-0.7-3.3-1.4-4.9-2c-20.3-8-32.6-27.2-31.4-48.9c1.1-21.4,15.1-37.8,38.3-45.1c47.3,0.2,93.1,9.7,137.6,24.4
	c192.8,63.8,322.3,192.1,388.4,384.1c13,37.8,20.5,76.9,25.1,116.6c3.5,30.9,4.6,61.8,3,92.8c-6.2,121.7-45.1,232.1-118.8,329.3
	c-86.6,114.3-200.5,187.6-339.9,221.1c-31.4,7.5-63.4,12-95.7,13.9c-27.8,1.7-55.6,1.8-83.3-0.4c-72.5-5.7-141.7-23.8-207.5-54.9
	c-0.7-0.3-1.2-0.9-1.9-1.4c-0.5-0.6-1-1.3-1.7-1.7c-16.7-7.8-32.5-17-48.6-25.9c0,0,0.1,0.1,0.1,0.1
	C295.4,1108.4,294.4,1108,293.3,1107.6z"/>
<path class="st1" d="M225.6,277.5c6-9.4,10.9-19,11.1-30.6c0.6-34.7-34.4-59.5-66.8-47.1c-1.8,0.7-3.7,1.2-5.6,1.8
	c0-2.1,1.8-3,3-4.2c96-101.6,213.1-162.7,351.4-183.1c38.5-5.7,77.2-7.3,116-4.8c1.6,0.1,3.7-0.8,4.9,1.2
	c-23.3,7.3-37.2,23.7-38.3,45.1c-1.2,21.7,11.1,40.9,31.4,48.9c1.6,0.7,3.3,1.4,4.9,2c-2.6,0-5.2,0-7.8-0.1
	c-91.8-5.1-178.4,13.8-259.9,56.4C314.5,191.9,266.8,230.6,225.6,277.5z"/>
</svg>
