<?xml version="1.0" encoding="utf-8"?>
<!-- Generator: Adobe Illustrator 22.0.1, SVG Export Plug-In . SVG Version: 6.00 Build 0)  -->
<svg version="1.1" id="Capa_1" xmlns="http://www.w3.org/2000/svg" xmlns:xlink="http://www.w3.org/1999/xlink" x="0px" y="0px"
	 viewBox="0 0 1200 1200" style="enable-background:new 0 0 1200 1200;" xml:space="preserve">
<style type="text/css">
	.st0{fill:#12FDBC;}
	.st1{fill:#3D3D3D;}
</style>
<path class="st0" d="M638.7,9.6c48.3,0.3,95.1,10.1,140.5,25.4c191.2,64.2,319.7,192.2,385.4,382.8c13.1,38,20.7,77.3,25.2,117.3
	c4.2,37.3,5.1,74.7,1.8,111.9c-12.9,147-71.2,273.3-176.3,376.9c-83.7,82.5-184.1,134.6-299.2,158.2c-47.4,9.7-95.4,13.3-143.6,10.7
	c-129.8-6.9-246-50.5-346.8-132.8C120.8,974.5,53.6,865,22.2,733.6c-7.5-31.5-11.9-63.5-13.8-95.8c-1.7-28-1.9-56,0.5-83.9
	c8.7-105.2,42.6-201.7,102.1-289c26.4-38.7,57.3-73.4,91.6-105.1c4.2-3.9,9.1-7,13.7-10.5c2.3,1.2,4.1-0.5,6.1-1
	c19.5-4.9,36.3,0.3,49.4,15c13.4,15.1,16.6,32.7,8.9,51.8c-1.2,2.9-2.8,5.6-4.2,8.5c-2.3,3.5-5.2,6.5-8.3,9.3
	c-17,15.2-32.8,31.6-47.4,49.2c-68.3,82.3-106.3,176.9-114.7,283.3c-3.7,46.5-0.2,92.7,9.8,138.1c22.8,104,73.1,192.4,152.2,263.9
	c84.6,76.5,184.3,118.2,297.7,127.3c44.2,3.6,88.3,0.5,131.7-8.5c106.4-22,196.9-72.5,269.8-153.3c84.7-93.9,126.9-205,128.7-331.2
	c0.6-40.7-4.7-80.8-14.5-120.3c-42.2-170-170.8-304.9-338.4-355.5c-32-9.7-64.7-15.4-97.8-19.4c-1,1-2.2,0.4-3.2,0.5
	c-1.7-0.4-3.4-0.9-5.2-1.3c-1.6-0.7-3.3-1.4-4.9-2c-20.3-8-32.6-27.2-31.4-48.9C601.5,33.3,615.4,16.9,638.7,9.6z"/>
<path class="st1" d="M276.4,223.5c1.4-2.8,3-5.5,4.2-8.5c7.7-19.1,4.5-36.7-8.9-51.8c-13.1-14.7-29.9-19.8-49.4-15
	c-2,0.5-3.9,2.1-6.1,1c6.6-7.5,14.8-13,22.6-19C327.5,62.7,427.1,22.7,538,10.7c32.1-3.5,64.2-4.4,96.4-2.3c1.4,0.1,3.3-0.7,4.3,1.2
	c-23.3,7.3-37.2,23.7-38.4,45.1c-1.2,21.7,11.1,40.9,31.4,48.9c1.6,0.7,3.3,1.4,4.9,2c-3-0.1-6,0-9-0.2c-33.2-2.1-66.3-0.5-99.2,4.4
	c-92.1,13.8-174,50.5-245.8,109.8C280.8,221.1,279.1,223.1,276.4,223.5z"/>
</svg>
