<?xml version="1.0" encoding="utf-8"?>
<!-- Generator: Adobe Illustrator 22.0.1, SVG Export Plug-In . SVG Version: 6.00 Build 0)  -->
<svg version="1.1" id="Capa_1" xmlns="http://www.w3.org/2000/svg" xmlns:xlink="http://www.w3.org/1999/xlink" x="0px" y="0px"
	 viewBox="0 0 1200 1200" style="enable-background:new 0 0 1200 1200;" xml:space="preserve">
<style type="text/css">
	.st0{fill:#12FDBC;}
	.st1{fill:#3D3D3D;}
</style>
<path class="st0" d="M639.6,10.6C687.9,11,734.7,20.8,780,36c191.2,64.2,319.6,192.1,385.3,382.8c13.1,38,20.7,77.3,25.2,117.2
	c4.2,37.3,5.1,74.7,1.8,111.9c-12.9,146.7-71,272.9-175.8,376.4c-82.9,81.9-182.3,134.1-296.6,157.9
	c-48.8,10.2-98.1,13.8-147.7,11.4c-78.1-3.8-152.9-22-223.6-55.8C229.8,1081,139,994.5,76.5,878.2c-12.9-24-23.3-49.1-33.5-74.3
	c-2.2-5.5-4-11.3-4.6-17.3c0.3-2,0.6-3.9,0.8-5.9c2.3-20.7,13.5-34.9,32.9-41.5c20-6.8,38-2.3,52.8,13.4c1.5,1.6,2.3,3.8,4.5,4.6
	c1.3,2.4,3,4.7,3.8,7.3c8.4,27.9,21.5,53.6,35.9,78.7c64.1,111.8,157.3,188.3,279.7,228.6c72.5,23.9,146.9,29.6,222.5,18.8
	c99.4-14.3,185.7-56.7,261.4-121.8c12.6-10.8,24.2-22.7,35.3-35.1c84.1-94.2,126.6-204.6,128.6-330.6c0.6-39-4.4-77.6-13.3-115.7
	c-39.7-170.7-170.5-309.9-338.5-360.4c-32.4-9.7-65.5-15.7-98.9-19.7c-1,1-2.1,0.4-3.2,0.5c-1.7-0.4-3.4-0.9-5.2-1.3
	c-1.6-0.7-3.3-1.4-4.9-2c-20.3-8-32.6-27.2-31.4-48.9C602.4,34.3,616.4,18,639.6,10.6z"/>
<path class="st1" d="M129.5,757.4c-2.2-0.9-3-3.1-4.5-4.6c-14.8-15.7-32.8-20.2-52.8-13.4c-19.4,6.6-30.6,20.8-32.9,41.5
	c-0.2,2-0.5,3.9-0.8,5.9C28,757,20.6,726.5,16,695.4C-8.2,533.4,26,384.5,122.6,252.1C218.9,120.1,349.7,42,511,15.4
	c41.2-6.8,82.7-8.6,124.3-5.9c1.4,0.1,3.3-0.7,4.3,1.2c-23.3,7.3-37.2,23.7-38.3,45.1c-1.2,21.7,11.1,40.9,31.4,48.9
	c1.6,0.7,3.3,1.4,4.9,2c-2.8-0.1-5.6,0-8.4-0.2c-30.2-2-60.4-0.9-90.4,3.1c-98.5,13-186.2,51.1-261.2,116.5
	c-102.3,89.2-158.9,202.2-170.6,337.3c-5.5,63.9,2.4,126.5,21.6,187.6C129.4,753.1,130.1,755.1,129.5,757.4z"/>
</svg>
